<?xml version="1.0" encoding="UTF-8"?>
<svg width="159px" height="40px" viewBox="0 0 159 40" version="1.1" xmlns="http://www.w3.org/2000/svg" xmlns:xlink="http://www.w3.org/1999/xlink">
    <title>Logo/Takima/White</title>
    <g id="Logo/Takima/White" stroke="none" stroke-width="1" fill="none" fill-rule="evenodd">
        <path d="M65.404,29.28 C66.748,29.28 68.4,28.608 68.68,28.44 C68.96,28.3 69.072,28.076 68.932,27.768 L68.428,26.536 C68.316,26.284 68.148,26.116 67.784,26.284 C67.448,26.452 66.664,26.788 66.076,26.788 C65.544,26.788 65.18,26.62 65.18,25.668 L65.18,20.124 L68.036,20.124 C68.344,20.124 68.568,19.872 68.568,19.592 L68.568,18.332 C68.568,18.024 68.344,17.8 68.036,17.8 L65.18,17.8 L65.18,14.664 C65.18,14.384 64.956,14.132 64.676,14.132 L63.08,14.16 C62.8,14.16 62.548,14.412 62.548,14.692 L62.548,17.8 L61.372,17.8 C61.064,17.8 60.84,18.024 60.84,18.332 L60.84,19.592 C60.84,19.872 61.064,20.124 61.372,20.124 L62.548,20.124 L62.548,25.948 C62.548,27.936 63.192,29.28 65.404,29.28 Z M78.308,29.28 C80.044,29.28 81.136,28.44 81.752,27.852 L82.032,28.608 C82.144,28.888 82.256,29 82.508,29 L83.292,29 C83.572,29 83.824,28.748 83.824,28.468 L83.824,22.504 C83.824,19.704 83.488,17.52 79.904,17.52 C77.832,17.52 76.236,18.08 76.04,18.164 C75.788,18.248 75.592,18.444 75.676,18.808 L75.9,19.844 C75.984,20.152 76.18,20.376 76.516,20.292 C77.104,20.124 78.364,19.788 79.652,19.788 C81.08,19.788 81.416,20.488 81.388,22.252 C81.388,22.252 80.352,21.916 79.176,21.916 C76.32,21.916 74.696,23.484 74.696,25.528 C74.696,27.852 76.208,29.28 78.308,29.28 Z M78.84,27.292 C77.804,27.292 77.132,26.508 77.132,25.5 C77.132,24.352 78.056,23.652 79.4,23.652 C80.408,23.652 81.192,23.988 81.36,24.1 L81.36,25.892 C81.024,26.452 79.96,27.292 78.84,27.292 Z M93.508,29 C93.788,29 94.04,28.748 94.04,28.468 L94.04,23.568 L99.108,28.776 C99.192,28.888 99.416,29 99.612,29 L101.908,29 C102.384,29 102.468,28.524 102.216,28.272 L96.728,22.784 L101.376,18.556 C101.628,18.332 101.544,17.8 101.068,17.8 L99.108,17.8 C98.828,17.8 98.604,17.968 98.408,18.136 L94.04,22.056 L94.04,9.932 C94.04,9.652 93.788,9.4 93.508,9.4 L91.884,9.4 C91.604,9.4 91.352,9.652 91.352,9.932 L91.352,28.468 C91.352,28.748 91.604,29 91.884,29 L93.508,29 Z M109.716,13.236 C110.64,13.236 111.368,12.508 111.368,11.612 C111.368,10.688 110.64,9.96 109.716,9.96 C108.82,9.96 108.12,10.688 108.12,11.612 C108.12,12.508 108.82,13.236 109.716,13.236 Z M110.556,29 C110.836,29 111.088,28.748 111.088,28.468 L111.088,18.332 C111.088,18.052 110.836,17.8 110.556,17.8 L108.96,17.8 C108.68,17.8 108.428,18.052 108.428,18.332 L108.428,28.468 C108.428,28.748 108.68,29 108.96,29 L110.556,29 Z M120.828,29 C121.108,29 121.36,28.748 121.36,28.468 L121.36,21.636 C121.5,21.272 122.452,19.956 124.132,19.956 C125.7,19.956 126.512,20.936 126.512,22.728 L126.512,28.468 C126.512,28.748 126.736,29 127.044,29 L128.528,29 C128.808,29 129.06,28.748 129.06,28.468 L129.06,22.672 C129.06,22.112 129.032,21.58 128.976,21.328 C129.172,21.16 130.152,19.956 131.86,19.956 C133.372,19.956 134.184,20.964 134.184,22.728 L134.184,28.468 C134.184,28.748 134.408,29 134.716,29 L136.284,29 C136.592,29 136.816,28.748 136.816,28.468 L136.816,22.84 C136.816,19.928 135.612,17.52 132.196,17.52 C130.068,17.52 128.444,19.004 128.136,19.312 C127.324,18.164 126.148,17.52 124.524,17.52 C122.368,17.52 121.08,18.836 120.828,19.088 L120.52,18.136 C120.436,17.94 120.296,17.8 120.044,17.8 L119.26,17.8 C118.98,17.8 118.728,18.052 118.728,18.332 L118.728,28.468 C118.728,28.748 118.98,29 119.26,29 L120.828,29 Z M147.116,29.28 C148.852,29.28 149.944,28.44 150.56,27.852 L150.84,28.608 C150.952,28.888 151.064,29 151.316,29 L152.1,29 C152.38,29 152.632,28.748 152.632,28.468 L152.632,22.504 C152.632,19.704 152.296,17.52 148.712,17.52 C146.64,17.52 145.044,18.08 144.848,18.164 C144.596,18.248 144.4,18.444 144.484,18.808 L144.708,19.844 C144.792,20.152 144.988,20.376 145.324,20.292 C145.912,20.124 147.172,19.788 148.46,19.788 C149.888,19.788 150.224,20.488 150.196,22.252 C150.196,22.252 149.16,21.916 147.984,21.916 C145.128,21.916 143.504,23.484 143.504,25.528 C143.504,27.852 145.016,29.28 147.116,29.28 Z M147.648,27.292 C146.612,27.292 145.94,26.508 145.94,25.5 C145.94,24.352 146.864,23.652 148.208,23.652 C149.216,23.652 150,23.988 150.168,24.1 L150.168,25.892 C149.832,26.452 148.768,27.292 147.648,27.292 Z" id="takima" fill="#FFFFFF" fill-rule="nonzero"></path>
        <path d="M17.9846149,0.973233052 C24.6711943,-1.75352796 32.310135,1.44440131 35.036896,8.1309807 L35.036896,8.1309807 L39.0668884,17.9954396 C40.8914123,22.4765506 40.0593492,27.3787055 37.2924888,30.9475544 C37.6834582,26.2859961 37.4829611,14.196019 26.5257927,6.95807247 C26.5257927,6.95807247 20.771525,3.17870152 16.2001904,7.60968816 C11.6188309,12.0406748 14.4257908,22.5467246 21.2827927,20.5918775 C21.2827927,20.5918775 25.1323377,19.649541 23.9694543,15.87017 C23.9694543,15.87017 23.147416,13.213583 20.4607545,13.8050496 C18.3354849,14.2762178 18.4958826,16.22104 18.4958826,16.22104 C18.4958826,16.22104 15.6087238,12.5419176 19.097374,10.2662752 C22.5759992,7.99063271 28.0295212,12.3514454 29.0721063,18.0856634 C30.1146914,23.8098565 30.4655614,29.0528565 22.6361484,36.431151 C22.6361484,36.431151 20.5309285,38.4461472 16.1300164,40 C12.0699494,39.6992543 8.29057849,37.5038107 6.0450106,33.9550114 C8.51112533,34.2156577 11.7291043,33.7144149 15.0473319,30.8573307 C15.0473319,30.8573307 15.0880336,30.8222944 15.1571826,30.7550218 L15.2530318,30.6590004 C15.8646648,30.0292275 17.5650379,27.9606362 16.5009361,25.3336347 C15.2177544,22.1557552 9.65395899,21.8048852 9.13266645,25.9251013 C9.13266645,25.9251013 9.1291614,25.95431 9.12783691,26.0055989 L9.1281963,26.0982014 C9.14243051,26.5456201 9.35288991,27.7163168 11.1476626,27.8699235 C11.1476626,27.8699235 12.5611674,27.8097743 12.6213166,26.5867418 C12.6814657,25.3737341 11.819328,25.1431624 11.819328,25.1431624 C11.819328,25.1431624 13.8643988,23.9000802 14.6262879,26.4363689 C15.2879284,28.6217877 11.8594275,30.8773804 8.8419456,30.4964359 C6.86704884,30.2458145 5.06257465,29.8648699 3.45859758,28.1205449 L3.45859758,28.1205449 L0.972433131,22.0354569 C-1.75432788,15.3488775 1.44360139,7.71996158 8.13018078,4.98317571 L8.13018078,4.98317571 Z M33.5331675,21.5843383 C33.5331675,21.5843383 35.3376417,27.9300726 34.1045844,33.8647877 C33.432919,34.3159063 32.7011044,34.6968508 31.9191656,35.0176462 L31.9191656,35.0176462 L29.2224792,36.1203805 C30.9567794,33.5840917 33.7938138,28.3811911 33.5331675,21.5843383 Z M25.8140279,22.0154072 C23.3178386,25.453933 18.8066531,23.9802791 18.8066531,23.9802791 C21.964483,27.6694263 19.7991139,32.4512829 19.7991139,32.4512829 C25.2325862,29.0628814 25.8140279,22.0154072 25.8140279,22.0154072 Z M11.3682095,8.31142812 L11.3480949,8.32585396 C10.9173343,8.63734204 3.73315895,13.9582653 5.81443889,20.8926232 C5.81443889,20.8926232 7.06754598,17.3237743 11.5286072,18.0355391 C11.5286072,18.0355391 11.5243234,18.0299823 11.5161588,18.019087 L11.4804251,17.970603 C11.0224795,17.340644 7.53775949,12.2545384 11.3682095,8.31142812 L11.3682095,8.31142812 Z" id="Combined-Shape" fill="#EE0B6F" fill-rule="nonzero"></path>
    </g>
</svg>